<svg xmlns="http://www.w3.org/2000/svg" xmlns:xlink="http://www.w3.org/1999/xlink" width="583" height="531" viewBox="0 0 583 531">
  <defs>
    <clipPath id="clip-path">
      <rect id="Rectangle_270" data-name="Rectangle 270" width="583" height="531" fill="none" opacity="0.51"/>
    </clipPath>
  </defs>
  <g id="OBJECTS_copy" opacity="0.14">
    <g id="Group_38" data-name="Group 38" clip-path="url(#clip-path)">
      <path id="Path_354" data-name="Path 354" d="M876.548,96.75S846.613,221.577,702.185,206.768C434.118,179.275,544.1,292.3,525.768,371.735,497.817,492.874,295.257,384.219,259.99,553.5" transform="translate(-284.927 -83.71)" fill="none" stroke="#707070" stroke-miterlimit="10" stroke-width="1" opacity="0.51"/>
      <path id="Path_355" data-name="Path 355" d="M876.548,106.48c-.846-.035-30.6,123.182-173.447,109.3-103.3-10.241-150.018.634-169.888,22.419-30.628,33.776,4.839,93.834-6.483,141.456C498.122,498.822,298.874,390.332,262.35,556.65" transform="translate(-287.698 -98.29)" fill="none" stroke="#707070" stroke-miterlimit="10" stroke-width="1" opacity="0.51"/>
      <path id="Path_356" data-name="Path 356" d="M876.571,116.19c-1.691-.071-31.3,121.82-172.542,108.6-101.961-9.548-148.409,1.268-168.538,23.159-30.84,33.517,3.793,92.836-7.786,139.648C498.7,504.845,302.49,396.471,264.71,559.818" transform="translate(-290.493 -112.862)" fill="none" stroke="#707070" stroke-miterlimit="10" stroke-width="1" opacity="0.51"/>
      <path id="Path_357" data-name="Path 357" d="M876.594,125.9c-2.525-.106-31.979,120.317-171.626,107.892-100.61-8.949-146.753,1.926-167.187,23.887-30.992,33.306,2.689,91.826-9.1,137.839-29.536,115.314-222.572,7.07-261.609,167.457" transform="translate(-293.288 -127.422)" fill="none" stroke="#707070" stroke-miterlimit="10" stroke-width="1" opacity="0.51"/>
      <path id="Path_358" data-name="Path 358" d="M876.6,135.63c-3.371-.153-32.66,118.8-170.722,107.175-99.26-8.362-145.108,2.584-165.837,24.615-31.145,33.106,1.585,90.828-10.405,136.03C499.576,516.828,309.723,408.724,269.43,566.14" transform="translate(-296.07 -142.014)" fill="none" stroke="#707070" stroke-miterlimit="10" stroke-width="1" opacity="0.51"/>
      <path id="Path_359" data-name="Path 359" d="M876.628,145.36c-4.216-.188-33.341,117.3-169.818,106.471-97.909-7.775-143.453,3.241-164.486,25.343-31.3,32.895.481,89.818-11.709,134.222C500.022,522.835,313.34,414.861,271.79,569.306" transform="translate(-298.865 -156.607)" fill="none" stroke="#707070" stroke-miterlimit="10" stroke-width="1" opacity="0.51"/>
      <path id="Path_360" data-name="Path 360" d="M876.639,155.08c-5.062-.223-34.01,115.8-168.9,105.754-96.559-7.187-141.808,3.9-163.135,26.072-31.45,32.683-.622,88.82-13.012,132.413-31.121,109.5-214.633,1.668-257.439,153.141" transform="translate(-301.648 -171.177)" fill="none" stroke="#707070" stroke-miterlimit="10" stroke-width="1" opacity="0.51"/>
      <path id="Path_361" data-name="Path 361" d="M876.65,164.81c-5.907-.258-34.692,114.28-168,105.05-95.208-6.6-140.153,4.557-161.785,26.8-31.591,32.484-1.726,87.821-14.316,130.593-31.662,107.575-211.979-.141-256.042,148.373" transform="translate(-304.43 -185.769)" fill="none" stroke="#707070" stroke-miterlimit="10" stroke-width="1" opacity="0.51"/>
      <path id="Path_362" data-name="Path 362" d="M876.661,174.521C869.909,174.227,841.3,287.3,709.58,278.866c-93.846-6.013-138.5,5.226-160.434,27.528-31.744,32.284-2.83,86.811-15.619,128.784C501.336,540.815,324.19,433.24,278.87,578.783" transform="translate(-307.213 -200.329)" fill="none" stroke="#707070" stroke-miterlimit="10" stroke-width="1" opacity="0.51"/>
      <path id="Path_363" data-name="Path 363" d="M876.684,184.251c-7.587-.329-36.03,111.262-166.177,103.629-92.5-5.426-136.841,5.884-159.084,28.256-31.885,32.073-3.934,85.813-16.923,126.976-32.73,103.711-206.694-3.746-253.27,138.837" transform="translate(-310.008 -214.922)" fill="none" stroke="#707070" stroke-miterlimit="10" stroke-width="1" opacity="0.51"/>
      <path id="Path_364" data-name="Path 364" d="M876.684,193.981c-8.432-.364-36.7,109.747-165.261,102.924-91.133-4.839-135.185,6.541-157.733,28.984-32.026,31.873-5.038,84.815-18.227,125.167-33.271,101.785-204.04-5.543-251.873,134.057" transform="translate(-312.779 -229.514)" fill="none" stroke="#707070" stroke-miterlimit="10" stroke-width="1" opacity="0.51"/>
      <path id="Path_365" data-name="Path 365" d="M876.7,203.7c-9.278-.411-37.369,108.232-164.357,102.208-89.783-4.251-133.529,7.211-156.383,29.712-32.167,31.685-6.142,83.817-19.53,123.359-33.811,99.871-201.4-7.352-250.487,129.289" transform="translate(-315.552 -244.084)" fill="none" stroke="#707070" stroke-miterlimit="10" stroke-width="1" opacity="0.51"/>
      <path id="Path_366" data-name="Path 366" d="M876.708,213.421c-10.123-.446-38.027,106.717-163.441,101.5-88.42-3.676-131.873,7.868-155.032,30.44-32.308,31.486-7.258,82.818-20.834,121.55-34.351,97.945-198.755-9.16-249.1,124.521" transform="translate(-318.334 -258.667)" fill="none" stroke="#707070" stroke-miterlimit="10" stroke-width="1" opacity="0.51"/>
      <path id="Path_367" data-name="Path 367" d="M876.731,223.142c-10.969-.481-38.685,105.2-162.536,100.787-87.058-3.1-130.217,8.538-153.682,31.168-32.437,31.286-8.362,81.82-22.149,119.742-34.891,96.03-196.1-10.957-247.7,119.753" transform="translate(-321.129 -273.237)" fill="none" stroke="#707070" stroke-miterlimit="10" stroke-width="1" opacity="0.51"/>
      <path id="Path_368" data-name="Path 368" d="M876.754,232.862c-11.814-.517-39.354,103.676-161.632,100.082-85.7-2.525-128.549,9.2-152.331,31.9-32.566,31.1-9.477,80.822-23.453,117.933C503.894,576.89,345.879,470.008,293.02,597.759" transform="translate(-323.923 -287.819)" fill="none" stroke="#707070" stroke-miterlimit="10" stroke-width="1" opacity="0.51"/>
      <path id="Path_369" data-name="Path 369" d="M876.765,242.592c-12.648-.552-40.012,102.161-160.716,99.377-84.333-1.95-126.893,9.865-150.98,32.625-32.707,30.9-10.581,79.824-24.756,116.113-36,92.2-190.8-14.562-244.932,110.205" transform="translate(-326.706 -302.4)" fill="none" stroke="#707070" stroke-miterlimit="10" stroke-width="1" opacity="0.51"/>
      <path id="Path_370" data-name="Path 370" d="M876.776,252.323c-13.494-.587-40.81,104.956-159.812,98.661-82.865-4.38-125.226,10.534-149.63,33.353-32.836,30.71-11.7,78.825-26.06,114.3-36.547,90.3-188.162-16.371-243.535,105.437" transform="translate(-329.489 -316.992)" fill="none" stroke="#707070" stroke-miterlimit="10" stroke-width="1" opacity="0.51"/>
      <path id="Path_371" data-name="Path 371" d="M876.788,262.043c-14.34-.622-41.456,103.676-158.9,97.956-81.5-3.969-123.57,11.2-148.279,34.081-32.965,30.523-12.813,77.839-27.363,112.5-37.111,88.4-185.519-18.168-242.149,100.669" transform="translate(-332.272 -331.574)" fill="none" stroke="#707070" stroke-miterlimit="10" stroke-width="1" opacity="0.51"/>
      <path id="Path_372" data-name="Path 372" d="M876.81,271.763c-15.185-.669-42.079,102.4-157.992,97.24-80.153-3.558-121.9,11.873-146.929,34.809-33.083,30.335-13.928,76.841-28.667,110.687-37.663,86.494-182.865-19.977-240.763,95.9" transform="translate(-335.066 -346.145)" fill="none" stroke="#707070" stroke-miterlimit="10" stroke-width="1" opacity="0.51"/>
      <path id="Path_373" data-name="Path 373" d="M876.81,281.484c-16.031-.7-42.713,101.1-157.076,96.535-78.8-3.147-120.235,12.543-145.578,35.537-33.212,30.147-15.044,75.854-29.971,108.878-38.227,84.592-180.223-21.773-239.365,91.133" transform="translate(-337.837 -360.728)" fill="none" stroke="#707070" stroke-miterlimit="10" stroke-width="1" opacity="0.51"/>
      <path id="Path_374" data-name="Path 374" d="M876.833,291.2c-16.876-.74-43.323,99.8-156.171,95.831C643.21,384.31,602.094,400.247,576.434,423.3c-33.341,29.959-16.171,74.856-31.274,107.07-38.8,82.7-177.58-23.582-237.98,86.353" transform="translate(-340.632 -375.298)" fill="none" stroke="#707070" stroke-miterlimit="10" stroke-width="1" opacity="0.51"/>
      <path id="Path_375" data-name="Path 375" d="M876.856,300.935c-17.71-.775-43.934,98.485-155.267,95.114-76.1-2.3-116.9,13.881-142.877,36.993-33.458,29.783-17.287,73.87-32.578,105.261-39.378,80.81-174.926-25.379-236.594,81.585" transform="translate(-343.426 -389.891)" fill="none" stroke="#707070" stroke-miterlimit="10" stroke-width="1" opacity="0.51"/>
      <path id="Path_376" data-name="Path 376" d="M876.855,310.655c-18.555-.81-44.545,91.45-154.351,94.41-74.75,2.008-115.232,14.551-141.526,37.722C547.4,472.381,562.563,515.67,547.1,546.239c-39.953,78.919-172.284-27.187-235.2,76.817" transform="translate(-346.197 -404.473)" fill="none" stroke="#707070" stroke-miterlimit="10" stroke-width="1" opacity="0.51"/>
      <path id="Path_377" data-name="Path 377" d="M876.89,320.376c-19.4-.846-45.191,89.912-153.447,93.693-73.376,2.572-113.564,15.232-140.176,38.461-33.693,29.419-19.542,71.885-35.2,101.632-40.54,77.029-169.642-28.984-233.811,72.049" transform="translate(-349.004 -419.044)" fill="none" stroke="#707070" stroke-miterlimit="10" stroke-width="1" opacity="0.51"/>
      <path id="Path_378" data-name="Path 378" d="M876.9,330.1c-20.247-.881-45.825,88.362-152.531,92.989-72,3.124-111.9,15.9-138.826,39.19-33.811,29.242-20.669,70.9-36.5,99.824-41.127,75.138-166.987-30.793-232.425,67.281" transform="translate(-351.787 -433.627)" fill="none" stroke="#707070" stroke-miterlimit="10" stroke-width="1" opacity="0.51"/>
      <path id="Path_379" data-name="Path 379" d="M876.9,339.817c-21.092-.928-46.459,86.811-151.626,92.284-70.628,3.664-110.217,16.583-137.475,39.918-33.928,29.055-21.8,69.912-37.8,98.015-41.726,73.259-164.345-32.589-231.027,62.5" transform="translate(-354.547 -448.198)" fill="none" stroke="#707070" stroke-miterlimit="10" stroke-width="1" opacity="0.51"/>
      <path id="Path_380" data-name="Path 380" d="M876.913,349.548c-21.938-.963-47.093,85.261-150.71,91.568-69.242,4.216-108.549,17.252-136.124,40.646-34.046,28.878-22.924,68.925-39.107,96.207-42.325,71.38-161.7-34.4-229.642,57.733" transform="translate(-357.33 -462.791)" fill="none" stroke="#707070" stroke-miterlimit="10" stroke-width="1" opacity="0.51"/>
      <path id="Path_381" data-name="Path 381" d="M876.936,359.259c-22.771-1-47.716,83.711-149.806,90.863-67.868,4.756-106.87,17.933-134.774,41.374-34.163,28.7-24.063,67.939-40.411,94.4C509.01,655.395,392.9,549.7,323.69,638.859" transform="translate(-360.125 -477.352)" fill="none" stroke="#707070" stroke-miterlimit="10" stroke-width="1" opacity="0.51"/>
      <path id="Path_382" data-name="Path 382" d="M876.936,368.99c-23.617-1.033-48.35,82.149-148.89,90.147-66.483,5.3-105.2,18.614-133.423,42.1-34.281,28.538-25.2,66.952-41.715,92.589-43.547,67.622-156.406-38-226.858,48.2" transform="translate(-362.896 -491.944)" fill="none" stroke="#707070" stroke-miterlimit="10" stroke-width="1" opacity="0.51"/>
      <path id="Path_383" data-name="Path 383" d="M876.959,378.71c-24.463-1.069-48.972,80.587-147.986,89.442-65.109,5.825-103.523,19.284-132.073,42.83-34.386,28.362-26.353,65.966-43.018,90.781-44.181,65.743-153.764-39.8-225.472,43.429" transform="translate(-365.69 -506.527)" fill="none" stroke="#707070" stroke-miterlimit="10" stroke-width="1" opacity="0.51"/>
      <path id="Path_384" data-name="Path 384" d="M876.982,388.431c-25.308-1.1-49.595,79.013-147.081,88.737-63.723,6.353-101.855,19.965-130.722,43.558-34.5,28.185-27.493,64.979-44.322,88.972-44.8,63.875-151.11-41.609-224.087,38.649" transform="translate(-368.485 -521.098)" fill="none" stroke="#707070" stroke-miterlimit="10" stroke-width="1" opacity="0.51"/>
      <path id="Path_385" data-name="Path 385" d="M876.981,398.172c-26.154-1.139-50.217,77.44-146.165,88.021-62.337,6.882-100.176,20.658-129.371,44.286-34.609,28.021-28.644,63.993-45.625,87.152-45.449,62-148.467-43.417-222.689,33.881" transform="translate(-371.256 -535.702)" fill="none" stroke="#707070" stroke-miterlimit="10" stroke-width="1" opacity="0.51"/>
      <path id="Path_386" data-name="Path 386" d="M877,407.884c-27-1.186-50.828,75.854-145.261,87.316-60.951,7.4-98.5,21.339-128.021,45.015-34.715,27.845-29.794,63.006-46.929,85.343-46.107,60.117-145.825-45.214-221.3,29.113" transform="translate(-374.051 -550.263)" fill="none" stroke="#707070" stroke-miterlimit="10" stroke-width="1" opacity="0.51"/>
      <path id="Path_387" data-name="Path 387" d="M877.027,417.615c-27.833-1.221-51.439,74.269-144.345,86.6-59.565,7.915-96.817,22.02-126.67,45.743-34.833,27.68-30.957,62.02-48.244,83.535C511,691.731,414.6,586.469,337.85,657.838" transform="translate(-376.845 -564.856)" fill="none" stroke="#707070" stroke-miterlimit="10" stroke-width="1" opacity="0.51"/>
      <path id="Path_388" data-name="Path 388" d="M877.038,427.336c-28.679-1.257-52.061,72.672-143.441,85.9-58.18,8.42-95.138,22.7-125.32,46.471-34.938,27.516-32.12,61.022-49.548,81.726C511.3,697.788,418.2,592.609,340.21,661.006" transform="translate(-379.628 -579.439)" fill="none" stroke="#707070" stroke-miterlimit="10" stroke-width="1" opacity="0.51"/>
      <path id="Path_389" data-name="Path 389" d="M877.05,435.777c-29.524-1.292-52.672,71.063-142.525,85.191-56.794,8.925-93.458,23.394-123.969,47.2-35.044,27.352-33.282,60.035-50.851,79.918-48.115,54.48-137.874-50.628-217.134,14.8" transform="translate(-382.411 -592.731)" fill="none" stroke="#707070" stroke-miterlimit="10" stroke-width="1" opacity="0.51"/>
      <path id="Path_390" data-name="Path 390" d="M877.073,442.3c-30.37-1.327-53.282,69.454-141.62,84.474-55.4,9.419-91.779,24.075-122.619,47.927-35.15,27.187-34.457,59.037-52.155,78.109C511.87,705.4,425.447,600.39,344.93,662.844" transform="translate(-385.205 -604.12)" fill="none" stroke="#707070" stroke-miterlimit="10" stroke-width="1" opacity="0.51"/>
      <path id="Path_391" data-name="Path 391" d="M877.084,448.789c-31.215-1.362-53.881,67.833-140.716,83.77-54.01,9.912-90.1,24.768-121.268,48.655-35.255,27.023-35.631,58.039-53.459,76.3-49.513,50.7-132.589-54.234-214.351,5.261" transform="translate(-387.988 -615.455)" fill="none" stroke="#707070" stroke-miterlimit="10" stroke-width="1" opacity="0.51"/>
      <path id="Path_392" data-name="Path 392" d="M877.085,455.269c-32.061-1.4-54.492,66.213-139.8,83.053-52.613,10.393-88.409,25.461-119.918,49.383-35.361,26.858-36.806,57.04-54.762,74.492-50.241,48.808-129.935-56.03-212.965.493" transform="translate(-390.749 -626.797)" fill="none" stroke="#707070" stroke-miterlimit="10" stroke-width="1" opacity="0.51"/>
      <path id="Path_393" data-name="Path 393" d="M877.108,461.724c-32.895-1.444-55.1,64.568-138.9,82.349-51.227,10.875-86.729,26.142-118.567,50.111-35.467,26.706-37.992,56.042-56.066,72.672C512.622,713.75,436.286,609.017,352,662.581" transform="translate(-393.544 -638.103)" fill="none" stroke="#707070" stroke-miterlimit="10" stroke-width="1" opacity="0.51"/>
      <path id="Path_394" data-name="Path 394" d="M877.107,468.154c-33.74-1.48-55.7,62.924-137.98,81.644-49.841,11.345-85.05,26.835-117.216,50.84-35.561,26.541-39.178,55.044-57.369,70.863-51.7,44.979-124.65-59.636-210.182-9.055" transform="translate(-396.314 -649.394)" fill="none" stroke="#707070" stroke-miterlimit="10" stroke-width="1" opacity="0.51"/>
      <path id="Path_395" data-name="Path 395" d="M877.13,474.574c-34.586-1.515-56.312,61.256-137.076,80.928-48.444,11.8-83.359,27.528-115.866,51.568-35.666,26.389-40.376,54.034-58.673,69.055-52.448,43.053-122-61.444-208.8-13.823" transform="translate(-399.109 -660.676)" fill="none" stroke="#707070" stroke-miterlimit="10" stroke-width="1" opacity="0.51"/>
      <path id="Path_396" data-name="Path 396" d="M877.141,480.951c-35.432-1.55-56.923,59.589-136.16,80.223-47.058,12.249-81.679,28.232-114.515,52.3-35.772,26.224-41.574,53.024-59.976,67.246-53.212,41.116-119.354-63.241-207.41-18.591" transform="translate(-401.892 -671.904)" fill="none" stroke="#707070" stroke-miterlimit="10" stroke-width="1" opacity="0.51"/>
      <path id="Path_397" data-name="Path 397" d="M877.153,487.318c-36.277-1.585-57.534,57.9-135.255,79.507-45.672,12.7-79.988,28.925-113.165,53.036-35.878,26.072-42.771,52-61.28,65.437-53.987,39.166-116.712-65.05-206.013-23.359" transform="translate(-404.675 -683.132)" fill="none" stroke="#707070" stroke-miterlimit="10" stroke-width="1" opacity="0.51"/>
      <path id="Path_398" data-name="Path 398" d="M877.176,493.654c-37.123-1.621-58.144,56.195-134.339,78.8-44.287,13.13-78.3,29.618-111.814,53.764-35.972,25.919-43.969,50.981-62.6,63.629C513.665,727.042,454.369,623,363.8,661.722" transform="translate(-407.469 -694.319)" fill="none" stroke="#707070" stroke-miterlimit="10" stroke-width="1" opacity="0.51"/>
      <path id="Path_399" data-name="Path 399" d="M877.2,499.987c-37.956-1.656-58.755,54.48-133.435,78.086-42.9,13.564-76.618,30.323-110.464,54.492-36.077,25.755-45.167,49.947-63.9,61.82-55.549,35.208-111.415-68.655-203.241-32.907" transform="translate(-410.264 -705.514)" fill="none" stroke="#707070" stroke-miterlimit="10" stroke-width="1" opacity="0.51"/>
    </g>
  </g>
</svg>
