<svg xmlns="http://www.w3.org/2000/svg" xmlns:xlink="http://www.w3.org/1999/xlink" width="111.698" height="42" viewBox="0 0 111.698 42">
  <defs>
    <clipPath id="clip-path">
      <rect id="Rectangle_265" data-name="Rectangle 265" width="111.698" height="42" fill="none"/>
    </clipPath>
  </defs>
  <g id="Potros_Logo" data-name="Potros Logo" transform="translate(0 0)">
    <g id="Group_35" data-name="Group 35" transform="translate(0 0)" clip-path="url(#clip-path)">
      <path id="Path_277" data-name="Path 277" d="M67,0c17.416,0,32.626,3.728,40.8,9.273h-6.183C94.943,5.2,81.944,2.442,67,2.442S39.058,5.2,32.382,9.273H26.2C34.374,3.728,49.584,0,67,0" transform="translate(-11.151 0)" fill="#e86a1e" fill-rule="evenodd"/>
      <path id="Path_278" data-name="Path 278" d="M29.508,67.142H26.873v1.04h2.346a.971.971,0,0,1,.682.183.987.987,0,0,1,.184.695v.419a1,1,0,0,1-.181.7.962.962,0,0,1-.686.184H27.045a.969.969,0,0,1-.689-.186,1,1,0,0,1-.183-.7v-.1l.578-.133v.6h2.772V68.724H27.184a.96.96,0,0,1-.688-.186,1.014,1.014,0,0,1-.179-.7v-.323a1.011,1.011,0,0,1,.179-.7.96.96,0,0,1,.688-.186h1.983a1,1,0,0,1,.687.181.86.86,0,0,1,.189.636v.078l-.534.152Z" transform="translate(-11.14 -28.362)" fill="#777"/>
      <path id="Path_279" data-name="Path 279" d="M46.774,69.843h3.083v-2.7H46.774Zm-.621-2.327a1,1,0,0,1,.181-.692.974.974,0,0,1,.693-.187H49.6a.964.964,0,0,1,.686.184,1,1,0,0,1,.182.694v1.964a1,1,0,0,1-.182.7.961.961,0,0,1-.686.184H47.028a.968.968,0,0,1-.693-.188,1,1,0,0,1-.181-.7Z" transform="translate(-19.644 -28.362)" fill="#777"/>
      <path id="Path_280" data-name="Path 280" d="M66.94,70.362V66.637h3.545v.505H67.561v1.22h1.667v.5H67.561v1.5Z" transform="translate(-28.491 -28.362)" fill="#777"/>
      <path id="Path_281" data-name="Path 281" d="M86.417,67.142v3.22H85.8v-3.22h-1.7v-.505h4.036v.505Z" transform="translate(-35.792 -28.362)" fill="#777"/>
      <path id="Path_282" data-name="Path 282" d="M102.986,70.362l-1.35-3.725h.628l1.009,2.96,1.1-2.96h.38l1.061,2.96,1.019-2.96h.557l-1.35,3.725h-.462l-1.033-2.816-1.067,2.816Z" transform="translate(-43.259 -28.362)" fill="#777"/>
      <path id="Path_283" data-name="Path 283" d="M123.408,68.969h2.007l-1.006-1.906Zm-1.351,1.393,2.034-3.725h.667l2.071,3.725h-.685l-.475-.917h-2.522l-.477.917Z" transform="translate(-51.951 -28.362)" fill="#777"/>
      <path id="Path_284" data-name="Path 284" d="M145.2,67.121h-2.14v1.307h2.14a.453.453,0,0,0,.318-.084.414.414,0,0,0,.084-.3V67.5a.414.414,0,0,0-.086-.3.445.445,0,0,0-.315-.087m-2.76,3.242V66.637h3a.868.868,0,0,1,.6.171.723.723,0,0,1,.184.552v.832a.718.718,0,0,1-.184.549.869.869,0,0,1-.6.171H144.9l1.7,1.451h-.924l-1.516-1.451h-1.1v1.451Z" transform="translate(-60.627 -28.362)" fill="#777"/>
      <path id="Path_285" data-name="Path 285" d="M162,70.362V66.637h3.588v.5h-2.967v1.04h1.812v.491h-1.812V69.85h3v.512Z" transform="translate(-68.951 -28.362)" fill="#777"/>
      <path id="Path_286" data-name="Path 286" d="M2.507,40.249h9.719V33.436H2.507Zm0,2v5.269H0V33.4a1.968,1.968,0,0,1,1.962-1.962h10.81A1.968,1.968,0,0,1,14.734,33.4v6.885a1.968,1.968,0,0,1-1.962,1.962Z" transform="translate(0 -13.381)" fill="#777" fill-rule="evenodd"/>
      <path id="Path_287" data-name="Path 287" d="M71.579,31.438h10.81A1.968,1.968,0,0,1,84.351,33.4v6.885a1.968,1.968,0,0,1-1.962,1.962H71.579a1.968,1.968,0,0,1-1.962-1.962V33.4a1.968,1.968,0,0,1,1.962-1.962m.545,2h9.719v6.813H72.124Z" transform="translate(-29.631 -13.381)" fill="#777" fill-rule="evenodd"/>
      <path id="Path_288" data-name="Path 288" d="M135.328,31.438h10.81A1.968,1.968,0,0,1,148.1,33.4v6.885a1.968,1.968,0,0,1-1.962,1.962h-10.81a1.967,1.967,0,0,1-1.962-1.962V33.4a1.967,1.967,0,0,1,1.962-1.962m.545,2h9.719v6.813h-9.719Z" transform="translate(-56.764 -13.381)" fill="#777" fill-rule="evenodd"/>
      <path id="Path_289" data-name="Path 289" d="M39.537,33.436v8.811H37.03V33.4a1.968,1.968,0,0,1,1.962-1.962h8.775A1.968,1.968,0,0,1,49.729,33.4v.856H47.221v-.82Z" transform="translate(-15.761 -13.381)" fill="#777" fill-rule="evenodd"/>
      <path id="Path_290" data-name="Path 290" d="M108.892,28.886h6.429v2h-6.429V37.7h6.429v2h-6.974a1.968,1.968,0,0,1-1.962-1.962V30.885H105.9v-2h.489V25.443h2.507Z" transform="translate(-45.072 -10.829)" fill="#777" fill-rule="evenodd"/>
      <path id="Path_291" data-name="Path 291" d="M172.741,35.807h9.451a1.968,1.968,0,0,1,1.962,1.962v2.443a1.969,1.969,0,0,1-1.962,1.962h-10a1.968,1.968,0,0,1-1.962-1.962V38.976h2.507v1.2h8.905V37.805H172.2a1.968,1.968,0,0,1-1.962-1.962V33.4a1.968,1.968,0,0,1,1.962-1.962h10a1.968,1.968,0,0,1,1.962,1.962v.84h-2.508v-.8h-8.905Z" transform="translate(-72.456 -13.381)" fill="#777" fill-rule="evenodd"/>
    </g>
  </g>
</svg>
