<svg xmlns="http://www.w3.org/2000/svg" width="24" height="24" viewBox="0 0 24 24">
  <g id="Setings" transform="translate(130 -984)">
    <rect id="Rectangle_262" data-name="Rectangle 262" width="24" height="24" transform="translate(-130 984)" fill="none"/>
    <g id="Cog--Streamline-Core" transform="translate(-126.438 987.304)">
      <path id="Vector" d="M6.6,2.85l.529-1.366A1.231,1.231,0,0,1,8.278.7H9.287a1.231,1.231,0,0,1,1.145.788l.529,1.366,1.8,1.034,1.452-.222a1.231,1.231,0,0,1,1.231.6l.492.862a1.231,1.231,0,0,1-.1,1.391l-.9,1.145V9.73l.923,1.145a1.231,1.231,0,0,1,.1,1.391l-.492.862a1.231,1.231,0,0,1-1.231.6l-1.452-.222-1.8,1.034-.529,1.366a1.231,1.231,0,0,1-1.145.788H8.278a1.231,1.231,0,0,1-1.145-.788L6.6,14.543l-1.8-1.034-1.452.222a1.231,1.231,0,0,1-1.231-.6l-.492-.862a1.231,1.231,0,0,1,.1-1.391l.9-1.145V7.663L1.706,6.518a1.231,1.231,0,0,1-.1-1.391L2.1,4.266a1.231,1.231,0,0,1,1.231-.6l1.452.222L6.6,2.85ZM6.321,8.7A2.462,2.462,0,1,0,8.783,6.235,2.462,2.462,0,0,0,6.321,8.7Z" transform="translate(0 0)" fill="#fff"/>
      <path id="Vector_2" d="M6.6,2.85l.529-1.366A1.231,1.231,0,0,1,8.278.7H9.287a1.231,1.231,0,0,1,1.145.788l.529,1.366,1.8,1.034,1.452-.222a1.231,1.231,0,0,1,1.231.6l.492.862a1.231,1.231,0,0,1-.1,1.391l-.9,1.145V9.73l.923,1.145a1.231,1.231,0,0,1,.1,1.391l-.492.862a1.231,1.231,0,0,1-1.231.6l-1.452-.222-1.8,1.034-.529,1.366a1.231,1.231,0,0,1-1.145.788H8.278a1.231,1.231,0,0,1-1.145-.788L6.6,14.543l-1.8-1.034-1.452.222a1.231,1.231,0,0,1-1.231-.6l-.492-.862a1.231,1.231,0,0,1,.1-1.391l.9-1.145V7.663L1.706,6.518a1.231,1.231,0,0,1-.1-1.391L2.1,4.266a1.231,1.231,0,0,1,1.231-.6l1.452.222L6.6,2.85ZM6.321,8.7A2.462,2.462,0,1,0,8.783,6.235,2.462,2.462,0,0,0,6.321,8.7h0Z" transform="translate(0 0)" fill="none" stroke="#c1c4d6" stroke-linecap="round" stroke-linejoin="round" stroke-width="1.5"/>
    </g>
  </g>
</svg>
